<svg xmlns="http://www.w3.org/2000/svg" xmlns:xlink="http://www.w3.org/1999/xlink" viewBox="0 0 27 30"><defs><style>.cls-1{fill:none;}.cls-2{clip-path:url(#clip-path);}.cls-3{clip-path:url(#clip-path-2);}.cls-4{fill:#030104;}.cls-5{clip-path:url(#clip-path-3);}</style><clipPath id="clip-path" transform="translate(5 5)"><path class="cls-1" d="M14.2,10.59a4.52,4.52,0,0,1,2.25-3.82,4.89,4.89,0,0,0-3.82-2c-1.62-.16-3.17.92-4,.92s-2.1-.9-3.45-.88A5.18,5.18,0,0,0,.87,7.34C-1,10.41.4,15,2.2,17.46c.87,1.22,1.92,2.59,3.29,2.54s1.82-.82,3.42-.82S11,20,12.36,20s2.32-1.24,3.19-2.46A11.14,11.14,0,0,0,17,14.65,4.47,4.47,0,0,1,14.2,10.59Z"/></clipPath><clipPath id="clip-path-2" transform="translate(5 5)"><rect class="cls-1" x="-63" y="-474" width="375" height="667"/></clipPath><clipPath id="clip-path-3" transform="translate(5 5)"><path class="cls-1" d="M12,3.29A4.65,4.65,0,0,0,13,0a4.36,4.36,0,0,0-2.91,1.56A4.5,4.5,0,0,0,9,4.75,3.61,3.61,0,0,0,12,3.29Z"/></clipPath></defs><g id="Layer_2" data-name="Layer 2"><g id="Layer_1-2" data-name="Layer 1"><g class="cls-2"><g class="cls-3"><rect class="cls-4" y="4.76" width="27" height="25.24"/></g></g><g class="cls-5"><g class="cls-3"><rect class="cls-4" x="9" width="14" height="14.76"/></g></g></g></g></svg>