<svg xmlns="http://www.w3.org/2000/svg" viewBox="0 0 463 502.63"><defs><style>.cls-1{fill:#7a879a;}</style></defs><g id="Layer_2" data-name="Layer 2"><g id="Capa_1" data-name="Capa 1"><path class="cls-1" d="M448.62,56.21,406.75,14.35a49.1,49.1,0,0,0-69.37,0L25.9,325.85a13.81,13.81,0,0,0-3.74,7.1L1.23,446A13.54,13.54,0,0,0,17,461.77l113-20.93a13.75,13.75,0,0,0,7.1-3.74L448.62,125.6A49,49,0,0,0,448.62,56.21ZM31.43,431.57l12.66-68.38L99.81,418.9Zm96.14-23.18-73-73L321,69l73,73ZM429.48,106.46l-16.39,16.38-73-73,16.39-16.39a22,22,0,0,1,31.09,0l41.87,41.87A22,22,0,0,1,429.48,106.46Z"/><rect class="cls-1" y="472" width="297" height="30.63" rx="12"/></g></g></svg>