<svg xmlns="http://www.w3.org/2000/svg" xmlns:xlink="http://www.w3.org/1999/xlink" viewBox="0 0 26.9 31.65"><defs><style>.cls-1{fill:none;}.cls-2,.cls-5{fill:#7a869a;}.cls-2{stroke:#7a869a;stroke-miterlimit:10;stroke-width:0.5px;}.cls-3{fill:#fff;}.cls-4{clip-path:url(#clip-path);}.cls-5{isolation:isolate;font-size:15.03px;font-family:Arial-BoldMT, Arial;font-weight:700;}</style><clipPath id="clip-path"><rect class="cls-1" x="2.58" y="6.68" width="15.03" height="16.61"/></clipPath></defs><g id="Layer_2" data-name="Layer 2"><g id="Layer_1-2" data-name="Layer 1"><g id="Smartphone"><path class="cls-2" d="M24.14.25H12.08A2.51,2.51,0,0,0,9.57,2.76V28.89a2.51,2.51,0,0,0,2.51,2.51H24.14a2.52,2.52,0,0,0,2.51-2.51V2.76A2.52,2.52,0,0,0,24.14.25Zm-2.63,1-.3,1.51H15l-.3-1.51Zm4.13,27.64a1.5,1.5,0,0,1-1.5,1.5H12.08a1.51,1.51,0,0,1-1.51-1.5V2.76a1.52,1.52,0,0,1,1.51-1.51h1.6l.42,2.11a.5.5,0,0,0,.49.41h7a.51.51,0,0,0,.49-.41l.42-2.11h1.6a1.51,1.51,0,0,1,1.5,1.51Z"/><path class="cls-2" d="M19.09,28.38h-3a.51.51,0,0,0,0,1h3a.51.51,0,1,0,0-1Z"/></g><circle class="cls-3" cx="10.03" cy="16.02" r="10.03"/><g id="Layer_2-2" data-name="Layer 2"><g id="Layer_1-2-2" data-name="Layer 1-2"><g class="cls-4"><text class="cls-5" transform="translate(2.58 20.12)">@</text></g></g></g></g></g></svg>