<svg xmlns="http://www.w3.org/2000/svg" viewBox="0 0 18.31 18.31"><defs><style>.cls-1{fill:#167ee6;}.cls-2{fill:#12b347;}.cls-3{fill:#0f993e;}.cls-4{fill:#ffd500;}.cls-5{fill:#ff4b26;}.cls-6{fill:#d93f21;}</style></defs><g id="Layer_2" data-name="Layer 2"><g id="Layer_1-2" data-name="Layer 1"><path class="cls-1" d="M17.62,7.56H10.15a.6.6,0,0,0-.6.6v2.39a.59.59,0,0,0,.6.59h4.21A5.62,5.62,0,0,1,11.94,14l1.79,3.1a9,9,0,0,0,4.58-7.85,5.87,5.87,0,0,0-.1-1.17A.6.6,0,0,0,17.62,7.56Z"/><path class="cls-2" d="M9.16,14.73a5.57,5.57,0,0,1-4.82-2.79L1.23,13.73a9.14,9.14,0,0,0,12.5,3.35h0L11.94,14A5.58,5.58,0,0,1,9.16,14.73Z"/><path class="cls-3" d="M13.73,17.08h0L11.94,14a5.58,5.58,0,0,1-2.78.75v3.58A9.11,9.11,0,0,0,13.73,17.08Z"/><path class="cls-4" d="M3.58,9.16a5.5,5.5,0,0,1,.76-2.79L1.23,4.58a9.12,9.12,0,0,0,0,9.15l3.11-1.79A5.49,5.49,0,0,1,3.58,9.16Z"/><path class="cls-5" d="M9.16,3.58a5.54,5.54,0,0,1,3.53,1.27.6.6,0,0,0,.8,0l1.69-1.69a.6.6,0,0,0,0-.88A9.13,9.13,0,0,0,1.23,4.58L4.34,6.37A5.57,5.57,0,0,1,9.16,3.58Z"/><path class="cls-6" d="M12.69,4.85a.6.6,0,0,0,.8,0l1.69-1.69a.6.6,0,0,0,0-.88A9.11,9.11,0,0,0,9.16,0V3.58A5.54,5.54,0,0,1,12.69,4.85Z"/></g></g></svg>