<?xml version="1.0" encoding="utf-8"?>
<!-- Generator: Adobe Illustrator 25.0.1, SVG Export Plug-In . SVG Version: 6.00 Build 0)  -->
<svg version="1.1" id="Layer_1" xmlns="http://www.w3.org/2000/svg" xmlns:xlink="http://www.w3.org/1999/xlink" x="0px" y="0px"
	 viewBox="0 0 32 32" style="enable-background:new 0 0 32 32;" xml:space="preserve">
<style type="text/css">
	.st0{clip-path:url(#SVGID_2_);}
	.st1{clip-path:url(#SVGID_4_);}
	.st2{fill:#007AB9;}
	.st3{clip-path:url(#SVGID_6_);}
	.st4{clip-path:url(#SVGID_8_);}
	.st5{fill:#F1F2F2;}
</style>
<g id="Layer_2_1_">
	<g id="Layer_1-2">
		<g>
			<defs>
				<circle id="SVGID_1_" cx="16.1" cy="15.9" r="15.8"/>
			</defs>
			<clipPath id="SVGID_2_">
				<use xlink:href="#SVGID_1_"  style="overflow:visible;"/>
			</clipPath>
			<g class="st0">
				<g>
					<defs>
						<rect id="SVGID_3_" x="-306.8" y="-678.8" width="538.3" height="957.4"/>
					</defs>
					<clipPath id="SVGID_4_">
						<use xlink:href="#SVGID_3_"  style="overflow:visible;"/>
					</clipPath>
					<g class="st1">
						<rect x="-6.9" y="-7.1" class="st2" width="45.9" height="45.9"/>
					</g>
				</g>
			</g>
		</g>
		<g>
			<defs>
				<path id="SVGID_5_" d="M7.7,24.5h3.7V12.9H7.7V24.5z M9.6,7.3C8.5,7.2,7.6,8,7.5,9.1c0,0.1,0,0.1,0,0.2c0,1.1,0.8,2,1.9,2
					c0,0,0.1,0,0.1,0l0,0c1.1,0.1,2-0.7,2.1-1.8c0-0.1,0-0.1,0-0.2c0-1.1-0.8-2-1.9-2C9.7,7.3,9.7,7.3,9.6,7.3z M24.7,17.8v6.7H21
					v-6.2c0-1.6-0.5-2.6-1.9-2.6c-0.9,0-1.6,0.6-1.9,1.4c-0.1,0.3-0.1,0.6-0.1,0.9v6.5h-3.7c0,0,0-10.5,0-11.6h3.7v1.7l0,0l0,0l0,0
					c0.6-1.2,1.9-1.9,3.3-1.9C22.9,12.6,24.7,14.3,24.7,17.8z"/>
			</defs>
			<clipPath id="SVGID_6_">
				<use xlink:href="#SVGID_5_"  style="overflow:visible;"/>
			</clipPath>
			<g class="st3">
				<g>
					<defs>
						<rect id="SVGID_7_" x="-306.8" y="-678.8" width="538.3" height="957.4"/>
					</defs>
					<clipPath id="SVGID_8_">
						<use xlink:href="#SVGID_7_"  style="overflow:visible;"/>
					</clipPath>
					<g class="st4">
						<rect x="0.3" y="0.1" class="st5" width="31.6" height="31.6"/>
					</g>
				</g>
			</g>
		</g>
	</g>
</g>
</svg>
