<svg xmlns="http://www.w3.org/2000/svg" xmlns:xlink="http://www.w3.org/1999/xlink" viewBox="0 0 32 32"><defs><style>.cls-1{fill:none;}.cls-2{clip-path:url(#clip-path);}.cls-3{clip-path:url(#clip-path-2);}.cls-4{fill:#007ab9;}.cls-5{clip-path:url(#clip-path-3);}.cls-6{fill:#f1f2f2;}</style><clipPath id="clip-path" transform="translate(5 5)"><circle class="cls-1" cx="11" cy="11" r="11"/></clipPath><clipPath id="clip-path-2" transform="translate(5 5)"><rect class="cls-1" x="-214" y="-473" width="375" height="667"/></clipPath><clipPath id="clip-path-3" transform="translate(5 5)"><path class="cls-1" d="M5.15,17H7.72V8.9H5.15ZM6.46,5A1.37,1.37,0,0,0,5,6.4,1.36,1.36,0,0,0,6.42,7.8h0A1.36,1.36,0,0,0,7.89,6.4,1.35,1.35,0,0,0,6.46,5ZM17,12.36V17H14.43V12.67c0-1.09-.37-1.83-1.31-1.83a1.42,1.42,0,0,0-1.32,1,2.13,2.13,0,0,0-.08.66V17H9.15s0-7.34,0-8.1h2.57v1.15l0,0h0v0A2.54,2.54,0,0,1,14,8.71C15.73,8.71,17,9.87,17,12.36Z"/></clipPath></defs><g id="Layer_2" data-name="Layer 2"><g id="Layer_1-2" data-name="Layer 1"><g class="cls-2"><g class="cls-3"><rect class="cls-4" width="32" height="32"/></g></g><g class="cls-5"><g class="cls-3"><rect class="cls-6" x="5" y="5" width="22" height="22"/></g></g></g></g></svg>