<svg xmlns="http://www.w3.org/2000/svg" viewBox="0 0 35 52"><defs><style>.cls-1{fill:#7a869a;}</style></defs><g id="Layer_2" data-name="Layer 2"><g id="Layer_1-2" data-name="Layer 1"><g id="lock-_1_" data-name="lock-(1)"><path class="cls-1" d="M30.43,21.69v-8.3A13.18,13.18,0,0,0,17.5,0,13.18,13.18,0,0,0,4.57,13.39v8.3A18.38,18.38,0,0,0,0,33.88C0,43.87,7.85,52,17.5,52S35,43.87,35,33.88A18.38,18.38,0,0,0,30.43,21.69ZM17.5,4.73a8.54,8.54,0,0,1,8.37,8.66V18A17,17,0,0,0,9.13,18V13.39A8.54,8.54,0,0,1,17.5,4.73Zm0,42.54A13.18,13.18,0,0,1,4.57,33.88,13.19,13.19,0,0,1,17.5,20.48a13.19,13.19,0,0,1,12.93,13.4A13.18,13.18,0,0,1,17.5,47.27Z"/><path class="cls-1" d="M18,27c-1.65,0-3,1.82-3,4.06a4.65,4.65,0,0,0,1.2,3.25v3.25C16.2,38.91,17,40,18,40s1.8-1.09,1.8-2.44V34.31A4.65,4.65,0,0,0,21,31.06C21,28.82,19.65,27,18,27Z"/></g></g></g></svg>