<svg xmlns="http://www.w3.org/2000/svg" viewBox="0 0 17.58 31.65"><defs><style>.cls-1{fill:#7a869a;stroke:#7a869a;stroke-miterlimit:10;stroke-width:0.5px;}</style></defs><g id="Layer_2" data-name="Layer 2"><g id="Layer_1-2" data-name="Layer 1"><g id="Smartphone"><path class="cls-1" d="M14.82.25H2.76A2.52,2.52,0,0,0,.25,2.76V28.89A2.52,2.52,0,0,0,2.76,31.4H14.82a2.51,2.51,0,0,0,2.51-2.51V2.76A2.51,2.51,0,0,0,14.82.25Zm-2.62,1-.3,1.51H5.69L5.38,1.25Zm4.13,27.64a1.51,1.51,0,0,1-1.51,1.5H2.76a1.51,1.51,0,0,1-1.51-1.5V2.76A1.53,1.53,0,0,1,2.76,1.25h1.6l.42,2.11a.5.5,0,0,0,.49.41h7a.5.5,0,0,0,.49-.41l.42-2.11h1.6a1.52,1.52,0,0,1,1.51,1.51Z"/><path class="cls-1" d="M9.78,28.38h-3a.51.51,0,0,0,0,1h3a.51.51,0,0,0,0-1Z"/></g></g></g></svg>