<svg xmlns="http://www.w3.org/2000/svg" viewBox="0 0 105.08 168.71"><defs><style>.cls-1,.cls-2{fill:none;stroke:#344154;stroke-linecap:round;stroke-linejoin:round;}.cls-1{stroke-width:6px;}.cls-2{stroke-width:3px;}.cls-3{fill:#f2ddde;}.cls-4{fill:#89abe3;}</style></defs><g id="Layer_2" data-name="Layer 2"><g id="Layer_1-2" data-name="Layer 1"><g id="Layer_2-2" data-name="Layer 2"><g id="Layer_1-2-2" data-name="Layer 1-2"><path class="cls-1" d="M102.07,146.15V15.87C102.07,8.76,97.56,3,92,3H13.09C7.5,3,3,8.76,3,15.87V153.71c0,6.65,4.22,12,9.42,12H93.08c5,0,9-5.14,9-11.48v-8.11"/><path class="cls-1" d="M34.94,3V9.29c0,3.84,2.44,7,5.45,7H64.68c3,0,5.45-3.12,5.45-7V3"/><line class="cls-2" x1="88.04" y1="19.35" x2="88.04" y2="152.42"/><line class="cls-2" x1="17.04" y1="152.42" x2="17.04" y2="19.35"/><rect class="cls-2" x="27.87" y="36.87" width="23.33" height="29.78"/><rect class="cls-3" x="33.87" y="44.52" width="11.33" height="14.46"/><rect class="cls-2" x="27.87" y="84.37" width="50.67" height="29.78"/><rect class="cls-4" x="33.86" y="92.03" width="38.67" height="14.47"/><line class="cls-2" x1="61.91" y1="36.87" x2="78.54" y2="36.87"/><line class="cls-2" x1="61.91" y1="51.76" x2="78.54" y2="51.76"/><line class="cls-2" x1="61.91" y1="66.65" x2="78.54" y2="66.65"/><line class="cls-2" x1="27.87" y1="127.27" x2="78.54" y2="127.27"/><line class="cls-2" x1="39.04" y1="143.22" x2="67.37" y2="143.22"/></g></g></g></g></svg>