<svg xmlns="http://www.w3.org/2000/svg" xmlns:xlink="http://www.w3.org/1999/xlink" viewBox="0 0 33 35"><defs><style>.cls-1{fill:none;}.cls-2{clip-path:url(#clip-path);}.cls-3{clip-path:url(#clip-path-2);}.cls-4{fill:#7a869a;}.cls-5{clip-path:url(#clip-path-3);}</style><clipPath id="clip-path" transform="translate(5 5)"><path class="cls-1" d="M1.83,23.16c.36-4.86,3.61-7.32,9.67-7.32s9.31,2.46,9.67,7.32ZM11.5,14C4.08,14,0,17.58,0,24.08A.91.91,0,0,0,.9,25H22.1a.91.91,0,0,0,.9-.92C23,17.58,18.92,14,11.5,14Z"/></clipPath><clipPath id="clip-path-2" transform="translate(5 5)"><rect class="cls-1" x="-37" y="-292" width="375" height="667"/></clipPath><clipPath id="clip-path-3" transform="translate(5 5)"><path class="cls-1" d="M12,11.14C9.69,11.14,7.81,9,7.81,6.3A4.18,4.18,0,0,1,12,1.86,4.23,4.23,0,0,1,16.19,6.3C16.19,9,14.31,11.14,12,11.14ZM12,0A6,6,0,0,0,6,6.3C6,10,8.69,13,12,13s6-3,6-6.7A6,6,0,0,0,12,0Z"/></clipPath></defs><g id="Layer_2" data-name="Layer 2"><g id="Layer_1-2" data-name="Layer 1"><g class="cls-2"><g class="cls-3"><rect class="cls-4" y="14" width="33" height="21"/></g></g><g class="cls-5"><g class="cls-3"><rect class="cls-4" x="6" width="22" height="23"/></g></g></g></g></svg>