<svg xmlns="http://www.w3.org/2000/svg" viewBox="0 0 126.92 164.26"><defs><style>.cls-1,.cls-2{fill:none;stroke:#344154;stroke-linecap:round;stroke-linejoin:round;}.cls-1{stroke-width:3px;}.cls-2{stroke-width:6px;}.cls-3{fill:#89abe3;}.cls-4{fill:#f2ddde;}</style></defs><g id="Layer_2" data-name="Layer 2"><g id="Layer_1-2" data-name="Layer 1"><polyline class="cls-1" points="46.79 94.7 40.56 130.16 51.9 143.12 63.24 130.16 57.01 94.7"/><path class="cls-2" d="M33.37,126.16H3l3.75-24c1.55-7.77,7.81-12.81,12.54-13.85l11.28-2.79A13.29,13.29,0,0,0,41,73.54c0-.68.06-1.39,0-2.13"/><path class="cls-2" d="M73.23,85.52a13.29,13.29,0,0,1-10.46-12,21.2,21.2,0,0,1-.05-2.13"/><path class="cls-2" d="M30.54,26.22C30,9.65,42.48,7,49.7,6.07,51.81,5.79,58.86,5,63.7,3A17.06,17.06,0,0,1,65,9a28.54,28.54,0,0,0,13-3.68c0,3.16.14,9.53-1.13,12.43a11.23,11.23,0,0,1-6.66,6.36,14.34,14.34,0,0,1-6,.23c-4.07-.54-8-1.75-12-2.52s-8.25-1.11-12.16.09"/><path class="cls-1" d="M68.5,42.47v2.8a1.18,1.18,0,0,1-1.18,1.18H57.26a1.17,1.17,0,0,1-1.17-1.18v-5.6a1.17,1.17,0,0,1,1.17-1.17H67.32l7.9-3.16"/><path class="cls-1" d="M35.31,42.47v2.8a1.17,1.17,0,0,0,1.17,1.18H46.54a1.18,1.18,0,0,0,1.18-1.18v-5.6a1.17,1.17,0,0,0-1.18-1.17H36.48l-7.9-3.16"/><line class="cls-1" x1="47.72" y1="42.47" x2="56.09" y2="42.47"/><polyline class="cls-1" points="61.32 86.92 51.9 91.85 51.9 91.85 42.48 86.92"/><path class="cls-2" d="M73.85,27.5a57.42,57.42,0,0,1,1.69,15C75.54,59.86,65,74,51.9,74S28.26,59.86,28.26,42.47a51.52,51.52,0,0,1,2.28-16.25"/><path class="cls-3" d="M48.37,118l-1.84,10.49,5.37,6.14,5.37-6.14L55.43,118a7.3,7.3,0,0,1-7.06,0Z"/><polygon class="cls-2" points="102.23 39.87 80.55 69.73 89.25 92.66 102.23 92.66 115.22 92.66 123.92 69.73 102.23 39.87"/><path class="cls-2" d="M89.25,92.66l-3.93,16.55a6.2,6.2,0,0,0,6.28,7.47h21.27a6.2,6.2,0,0,0,6.28-7.47l-3.93-16.55"/><path class="cls-2" d="M113.46,116.68v34.19a10.67,10.67,0,0,1-10.93,10.39h0A10.67,10.67,0,0,1,91.6,150.87V116.68"/><line class="cls-2" x1="102.23" y1="39.87" x2="102.23" y2="64.5"/><ellipse class="cls-2" cx="102.23" cy="72.26" rx="8.17" ry="7.77"/><path class="cls-4" d="M91.26,110.82a.42.42,0,0,0,.34.16h21.27a.42.42,0,0,0,.34-.16.41.41,0,0,0,.09-.36L111,100.57H93.52l-2.35,9.89A.41.41,0,0,0,91.26,110.82Z"/></g></g></svg>