<svg xmlns="http://www.w3.org/2000/svg" xmlns:xlink="http://www.w3.org/1999/xlink" viewBox="0 0 27 35"><defs><style>.cls-1{fill:none;}.cls-2{clip-path:url(#clip-path);}.cls-3{clip-path:url(#clip-path-2);}.cls-4{fill:#7a869a;}.cls-5{clip-path:url(#clip-path-3);}</style><clipPath id="clip-path" transform="translate(5 5)"><path class="cls-1" d="M8.5,22.73a6.44,6.44,0,0,1,0-12.88,6.44,6.44,0,0,1,0,12.88Zm0-20.46a4.13,4.13,0,0,1,4.07,4.17v2.2a8.34,8.34,0,0,0-8.14,0V6.44A4.13,4.13,0,0,1,8.5,2.27Zm6.28,8.16v-4A6.37,6.37,0,0,0,8.5,0,6.37,6.37,0,0,0,2.22,6.44v4A8.75,8.75,0,0,0,0,16.29,8.62,8.62,0,0,0,8.5,25,8.62,8.62,0,0,0,17,16.29,8.75,8.75,0,0,0,14.78,10.43Z"/></clipPath><clipPath id="clip-path-2" transform="translate(5 5)"><rect class="cls-1" x="-38" y="-326" width="375" height="667"/></clipPath><clipPath id="clip-path-3" transform="translate(5 5)"><path class="cls-1" d="M8.5,13A1.72,1.72,0,0,0,7,14.88a2.05,2.05,0,0,0,.6,1.49v1.51A1,1,0,0,0,8.5,19a1,1,0,0,0,.9-1.12V16.37a2.05,2.05,0,0,0,.6-1.49A1.72,1.72,0,0,0,8.5,13Z"/></clipPath></defs><g id="Layer_2" data-name="Layer 2"><g id="Layer_1-2" data-name="Layer 1"><g class="cls-2"><g class="cls-3"><rect class="cls-4" width="27" height="35"/></g></g><g class="cls-5"><g class="cls-3"><rect class="cls-4" x="7" y="13" width="13" height="16"/></g></g></g></g></svg>