<svg xmlns="http://www.w3.org/2000/svg" viewBox="0 0 139.9 166.88"><defs><style>.cls-1,.cls-3{fill:none;stroke:#344154;stroke-linecap:round;stroke-linejoin:round;}.cls-1{stroke-width:3px;}.cls-2{fill:#89abe3;}.cls-3{stroke-width:7px;}</style></defs><g id="Layer_2" data-name="Layer 2"><g id="Layer_1-2" data-name="Layer 1"><circle class="cls-1" cx="103.02" cy="19.51" r="18.01" transform="translate(-1.79 16.75) rotate(-9.22)"/><path class="cls-2" d="M103,7.5a11.94,11.94,0,0,0-3.94.68,12,12,0,0,1,0,22.65,11.69,11.69,0,0,0,3.94.68,12,12,0,1,0,0-24Z"/><polyline class="cls-1" points="108.9 36.88 120.44 48.41 120.44 36.92 131.93 36.92 120.4 25.39"/><polyline class="cls-1" points="97.14 36.88 85.61 48.41 85.61 36.92 74.12 36.92 85.65 25.39"/><line class="cls-1" x1="43.26" y1="112.67" x2="99.67" y2="112.67"/><line class="cls-3" x1="120.65" y1="55.38" x2="120.65" y2="119.38"/><line class="cls-3" x1="20.23" y1="7.95" x2="78.4" y2="7.95"/><path class="cls-3" d="M119.4,163.38H41.68c-11.85,0-21.45-10.7-21.45-23.9V25.38"/><path class="cls-3" d="M118.34,163.38c10,0,18.06-9.35,18.06-20.88a22.62,22.62,0,0,0-5.23-14.7h-95a22.62,22.62,0,0,1,5.23,14.7,23.8,23.8,0,0,1-.52,5"/><path class="cls-3" d="M20.23,38.38H3.5S4.54,8,20.23,8"/><line class="cls-1" x1="43.99" y1="99.18" x2="100.4" y2="99.18"/><line class="cls-1" x1="43.99" y1="84.18" x2="100.4" y2="84.18"/><line class="cls-1" x1="44.51" y1="67.18" x2="100.92" y2="67.18"/></g></g></svg>