<svg xmlns="http://www.w3.org/2000/svg" xmlns:xlink="http://www.w3.org/1999/xlink" viewBox="0 0 34 37"><defs><style>.cls-1{fill:none;}.cls-2{clip-path:url(#clip-path);}.cls-3{clip-path:url(#clip-path-2);}.cls-4{fill:#7a869a;}.cls-5{clip-path:url(#clip-path-3);}</style><clipPath id="clip-path" transform="translate(5 5)"><path class="cls-1" d="M19.36,5.73,18.05,7.4a9.72,9.72,0,0,1,2.57,12.48A9.92,9.92,0,0,1,8.55,24.27a9.76,9.76,0,0,1,4-18.9L10.69,7.29l1.38,1.3,2.92-3L16.3,4.19l-1.37-1.3L11.86,0,10.55,1.36l2,1.89a11.88,11.88,0,0,0-2.41,23.61,12,12,0,0,0,12.87-7A11.81,11.81,0,0,0,19.36,5.73Z"/></clipPath><clipPath id="clip-path-2" transform="translate(5 5)"><rect class="cls-1" x="-37" y="-291" width="375" height="667"/></clipPath><clipPath id="clip-path-3" transform="translate(5 5)"><path class="cls-1" d="M12.5,11A1.78,1.78,0,0,1,14,13v1a2.49,2.49,0,0,0-3,0V13A1.78,1.78,0,0,1,12.5,11Zm2.59,3.13v-1.6a2.59,2.59,0,0,0-5.18,0v1.6a3.51,3.51,0,1,0,5.18,0Z"/></clipPath></defs><g id="Layer_2" data-name="Layer 2"><g id="Layer_1-2" data-name="Layer 1"><g class="cls-2"><g class="cls-3"><rect class="cls-4" width="34" height="37"/></g></g><g class="cls-5"><g class="cls-3"><rect class="cls-4" x="9" y="10" width="17" height="20"/></g></g></g></g></svg>